<svg viewBox="0 -0.7 1172.9 1181.8" xmlns="http://www.w3.org/2000/svg" fill-rule="evenodd" clip-rule="evenodd" stroke-linejoin="round" stroke-miterlimit="2" width="1659" height="2500">
  <path d="m309 1021 19 10a500 500 0 0 0 258 70 513 513 0 0 0 360-871A508 508 0 0 0 78 593a524 524 0 0 0 76 268l13 19-51 188 193-47z" fill="#00E676" fill-rule="nonzero"/>
  <path d="M1003 172A575 575 0 0 0 590 0h-1A586 586 0 0 0 6 583v4a617 617 0 0 0 77 291L0 1181l309-80a569 569 0 0 0 279 71c321-2 584-267 584-588 1-154-60-302-169-412m-413 901a474 474 0 0 1-245-67l-19-10-185 48 48-182-12-19a484 484 0 0 1-73-255c0-266 219-484 484-484a485 485 0 0 1 255 896 465 465 0 0 1-251 73m280-355-35-16s-51-22-83-38l-9-3a46 46 0 0 0-23 6c-6 4-3 3-48 54-3 6-9 10-15 10h-4a24 24 0 0 1-12-6l-16-7a310 310 0 0 1-93-60c-6-7-16-13-22-20a357 357 0 0 1-61-76l-3-7a46 46 0 0 1-7-12 24 24 0 0 1 4-16c3-5 12-16 22-26 10-9 10-16 16-22a39 39 0 0 0 6-32 1246 1246 0 0 0-51-121 37 37 0 0 0-22-16h-35c-7 0-13 3-19 3l-4 3c-6 3-12 10-19 13-6 3-9 13-16 19a163 163 0 0 0-35 99 189 189 0 0 0 16 73l3 10a532 532 0 0 0 119 163l12 12a193 193 0 0 1 26 26c66 58 145 99 229 121 10 3 23 3 32 7h32a118 118 0 0 0 48-13l22-13 7-6c6-7 13-10 19-16a84 84 0 0 0 16-19c6-15 10-30 13-45v-22a40 40 0 0 0-10-7" fill="#fff" fill-rule="nonzero"/>
</svg>