<svg xmlns="http://www.w3.org/2000/svg" width="5573.1" height="1990.2">
  <path d="m3284 1073-18 27a599 599 0 0 1-182 181 446 446 0 0 1-328 61c-60-13-115-46-171-73-13-6-20-6-31 1-48 28-94 60-145 82-90 38-185 60-283 34-61-16-114-50-162-92-34-29-36-29-71-1-62 51-133 84-208 111-93 34-189 54-287 64-120 12-230-8-311-107-65-78-83-170-43-265 44-104 94-205 141-307l73-161c5-10 6-21 7-32 1-20 5-42-18-54-24-12-52-10-69 12-22 27-41 57-57 88-54 103-106 207-158 310l-117 233c-38 74-108 102-184 73a69 69 0 0 1-47-57c-6-41 8-78 22-114l96-241 50-129c11-31 14-63 1-93-10-23-30-39-58-37-30 3-54 19-65 47-41 100-79 200-119 300-47 119-94 239-144 357-18 44-45 84-92 103-23 9-50 15-75 16-79 1-147-26-194-93-37-53-46-112-28-175l50-174 51-164c16-51 31-102 49-152 34-100 61-202 115-293 36-62 96-96 165-117 71-22 132 6 193 36 23 12 46 24 70 34 33 14 63 5 90-17 22-18 44-35 64-55 51-49 160-59 213-1 12 13 27 24 40 36 28 25 40 27 72 9 77-43 156-37 235-10 45 16 72 55 89 101 26 67 15 132-10 195-47 116-99 230-144 347-28 69-50 140-70 212-8 29-8 64-1 93 12 45 52 59 93 64 63 8 125-3 185-20 51-14 101-31 152-50 24-8 46-22 69-33 20-10 22-25 11-43-21-38-43-75-62-114-40-82-72-166-63-260 7-82 37-153 112-196 112-63 202-46 284 49 71 82 94 181 64 287-17 59-42 116-65 174-6 16-3 26 7 35a518 518 0 0 0 230 123c51 10 98-2 141-31 20-14 21-27 7-46a559 559 0 0 1-108-445c11-61 40-119 105-136 41-11 87-11 129-5 68 8 130 36 172 95 51 71 64 148 42 233-16 60-48 112-83 162-14 20-14 38 5 52 29 20 59 43 92 55 71 25 146 23 218 0 79-26 134-78 166-156 38-93 38-190 36-288l-6-229c-1-27-6-29-32-23l-206 38-65 11c-47 8-86-11-89-66-2-56-10-111-16-167l-1-9c-3-66 13-101 91-98 81 3 162 5 243 10 40 2 54-8 57-48l4-92c3-46 14-57 60-55 28 1 56 6 84 12 38 9 58 36 61 74 2 31 1 63 1 94-1 23 6 35 31 37 72 7 144 17 216 26 34 4 53 18 57 43 8 44-1 74-34 86-46 17-94 29-142 41-34 8-68 12-102 18-23 4-35 16-35 42 1 127-2 254 2 380 1 67 11 134 40 196 23 50 62 70 116 61 80-14 153-42 216-92 36-28 59-62 61-110 3-86 7-173 12-259 2-25 5-51 13-74 4-13 21-30 33-31 65-1 131-2 196 4 41 3 69 41 66 84-3 61-10 121-16 181l-22 223c-8 76 52 113 112 114 50 0 79-18 101-71 22-55 35-114 44-173 13-83 20-167 30-251 4-34 25-60 51-66 31-6 71 6 81 34 9 24 7 52 4 78-11 95-26 190-35 285-6 59 27 101 84 118 28 8 58 15 87 19 52 6 88-32 99-91 9-49 10-100 15-150 5-60 6-120 16-179 15-87 71-165 175-191 62-15 125-17 188-9 95 10 194 75 225 184 23 83 13 163-14 243-31 93-89 165-169 220-7 5-12 14-17 22 10 4 20 13 30 13 96-2 186-24 269-74 19-11 39-20 59-29 18-9 29 1 24 17-8 26-19 54-35 75a373 373 0 0 1-280 140c-48 3-96-3-144-6l-108-7c-18-1-29 6-34 25-28 119-44 240-59 361-9 76-23 152-41 227-10 40-42 68-86 75-26 4-45-7-54-31-7-21-14-43-16-64-9-106-5-212 9-318l18-162 14-113c2-30-5-37-34-43l-180-37c-41-9-72 5-100 33-36 38-77 70-125 91-58 25-119 20-179 11-86-14-155-59-204-132-15-23-26-48-38-73-6-13-12-19-29-10-57 29-114 59-173 84-66 27-135 37-205 18-68-19-121-63-164-118l-41-52zm1962-273-2-28c-9-54-63-78-106-46-20 15-38 34-51 55-45 68-65 147-85 225-5 20-9 40-8 61 0 37 22 48 54 28 65-42 113-101 154-166 25-39 45-80 44-129zm-2561 38c1-38-8-72-35-99a54 54 0 0 0-56-14c-27 8-41 27-43 60-4 63 23 118 51 171 15 28 28 27 47 1 26-35 36-76 36-119zm-644-12c-7-23-11-47-21-69-13-27-45-39-74-32-30 8-42 23-39 60a537 537 0 0 0 46 164c16 29 32 29 48 1 21-38 37-78 40-124z" style="fill:#ed1c40"/>
</svg>