<svg height="2382" viewBox="-1.1 -0.3 961 916.2" width="2500" xmlns="http://www.w3.org/2000/svg">
  <path d="M675 853a42 42 0 1 1 69-47 42 42 0 0 1-42 64c-11-2-21-8-27-17zm-240 51c-4-6-6-13-5-19 2-7 5-13 11-17a26 26 0 1 1-6 36zm299-690a175 175 0 0 1 31 115 98 98 0 0 1 35 169 171 171 0 0 1-150 261 116 116 0 0 1-191 58l-3 2-1 1-1 1-1 1-1 1c-71 49-168 31-217-40l-11-19-9-21-5-22-2-22a144 144 0 0 1-75-250 135 135 0 0 1 96-204 197 197 0 0 1 74-94c69-48 157-46 224-3 74-27 160-2 207 66zM63 405a40 40 0 0 1 10 56 40 40 0 0 1-55 10 40 40 0 0 1-11-55 40 40 0 0 1 55-10zm154-244a30 30 0 0 1-50 35c-4-7-6-15-4-23 1-8 5-15 12-20 7-4 15-6 23-5 8 2 15 6 19 13zM275 1c5-1 11 0 16 3a21 21 0 0 1 6 29c-3 5-8 8-13 10-6 1-11-1-16-4s-8-7-9-13a22 22 0 0 1 16-25zm241 31a39 39 0 0 1 54 14c5 9 7 19 4 29-2 10-8 19-17 25a40 40 0 0 1-54-14c-6-9-7-20-5-30 3-10 9-19 18-24zM166 762a18 18 0 0 1-22-14c-1-5 0-10 3-14s7-7 12-8c4-1 9 0 14 3 4 2 7 6 8 11s0 10-3 14-7 7-12 8zm693-505c6 8 8 17 6 26-1 9-6 17-14 22a34 34 0 0 1-47-9 33 33 0 0 1 9-46c7-5 16-7 24-6 9 2 17 6 22 13zm27 225a25 25 0 0 1 29 20 25 25 0 0 1-18 30 25 25 0 0 1-11-50zm50-116c5-1 10 0 15 3 4 2 7 7 8 12s0 10-3 14-7 7-12 8-10 0-14-3a19 19 0 0 1-5-25c2-4 6-7 11-9z" fill="#ff1154"/>
  <path d="M636 607c18 3 36 5 39 23 7 48-86 30-107 20a81 81 0 0 1-45-91c4-14 22-51 39-85 16-33 30-63 32-72 2-17-7-19-13-19-8 0-14 3-21 15-5 7-43 81-68 131l-22 44c-12 23-27 28-42 27-22-1-32-13-29-34l23-60c14-33 29-69 30-79 2-10 0-21-11-27-10-5-23 3-26 9-3 4-20 47-37 92l-44 110c-13 23-26 30-46 31-48 2-83-37-68-85l8-24c16-53 49-166 68-199 16-28 59-49 89-36l31 15 12 5c13 6 26-7 34-14l3-2 2-2c5-5 11-10 17-12 8-4 20-5 29-4 9 2 14 5 18 8l14 13 3 2c9 9 15 5 20 2l1-1c9-5 15-8 40-8 25 1 54 10 60 53 3 23-15 64-34 107-21 45-42 92-39 121 3 21 22 24 40 26z" fill="#fff"/>
</svg>